<?xml version="1.0" encoding="UTF-8" standalone="no"?>
<!-- Created with Inkscape (http://www.inkscape.org/) -->

<svg
  xmlns:dc="http://purl.org/dc/elements/1.1/"
  xmlns:cc="http://creativecommons.org/ns#"
  xmlns:rdf="http://www.w3.org/1999/02/22-rdf-syntax-ns#"
  xmlns="http://www.w3.org/2000/svg"
  xmlns:sodipodi="http://sodipodi.sourceforge.net/DTD/sodipodi-0.dtd"
  xmlns:inkscape="http://www.inkscape.org/namespaces/inkscape"
  width="192.80849mm"
  height="191.27916mm"
  viewBox="0 0 192.80849 191.27916"
  version="1.1"
  id="svg8"
  inkscape:version="0.92.3 (2405546, 2018-03-11)"
  sodipodi:docname="ios-party.svg">
  <defs
     id="defs2" />
  <sodipodi:namedview
     id="base"
     pagecolor="#ffffff"
     bordercolor="#666666"
     borderopacity="1.0"
     inkscape:pageopacity="0.0"
     inkscape:pageshadow="2"
     inkscape:zoom="0.35"
     inkscape:cx="364.0714"
     inkscape:cy="-155.10641"
     inkscape:document-units="mm"
     inkscape:current-layer="layer1"
     showgrid="false"
     inkscape:window-width="1920"
     inkscape:window-height="1025"
     inkscape:window-x="0"
     inkscape:window-y="27"
     inkscape:window-maximized="1"
     fit-margin-top="0"
     fit-margin-left="0"
     fit-margin-right="0"
     fit-margin-bottom="0" />
  <metadata
     id="metadata5">
    <rdf:RDF>
      <cc:Work
         rdf:about="">
        <dc:format>image/svg+xml</dc:format>
        <dc:type
           rdf:resource="http://purl.org/dc/dcmitype/StillImage" />
        <dc:title></dc:title>
      </cc:Work>
    </rdf:RDF>
  </metadata>
  <g
     inkscape:label="Layer 1"
     inkscape:groupmode="layer"
     id="layer1"
     transform="translate(-9.50611,-44.946597)">
    <path
       d="m 34.003748,235.66467 c -8.077498,-1.49254 -15.247419,-6.267 -19.828021,-13.20349 -1.843688,-2.79193 -2.931809,-5.27974 -4.041044,-9.23916 -0.5766132,-2.05823 -0.628573,-8.07008 -0.628573,-72.73238 0,-64.662321 0.051969,-70.674164 0.628573,-72.732376 2.258725,-8.062517 6.443056,-13.904848 13.00097,-18.152491 2.862104,-1.853823 5.364729,-2.932489 9.36054,-4.034513 2.074408,-0.572113 8.133538,-0.623663 73.304467,-0.623663 65.1709,0 71.23005,0.05157 73.30445,0.623663 3.99057,1.100575 6.49794,2.180216 9.31184,4.009512 7.19468,4.677231 12.16123,12.245925 13.44731,20.492792 0.67129,4.304648 0.55933,137.751056 -0.11865,141.466686 -2.23901,12.26986 -11.97009,21.925 -24.33645,24.14653 -4.08208,0.73331 -139.430327,0.71339 -143.405377,-0.0211 z m 93.014762,-24.25669 c 1.61821,-0.67084 3.53423,-2.88738 4.0037,-4.63162 0.20832,-0.77395 1.75041,-7.12857 3.42689,-14.12135 2.70663,-11.28967 3.00509,-12.8846 2.66396,-14.23567 -0.21129,-0.83684 -3.63521,-7.06304 -7.60872,-13.83597 l -7.22453,-12.31445 0.66874,-14.02296 c 0.36782,-7.71262 0.77278,-14.71659 0.89993,-15.56439 0.20491,-1.36629 1.80899,-3.35537 14.11508,-17.50295 7.63615,-8.778812 14.12228,-16.41479 14.41361,-16.968842 1.19995,-2.282111 0.24822,-5.542978 -2.0654,-7.076523 -1.60514,-1.063916 -4.27091,-1.135653 -5.88602,-0.158391 -0.62504,0.378197 -7.57861,7.192439 -15.45236,15.142774 l -14.3159,14.455132 -5.8595,4.1e-4 -5.85953,4.2e-4 L 88.06922,95.760912 C 79.891118,87.613928 72.807319,80.798772 72.327423,80.616117 c -3.120628,-1.187773 -6.880664,0.771073 -7.606104,3.962504 -0.642555,2.826755 -0.277395,3.333114 14.979933,20.771829 l 14.415913,16.47699 0.0035,2.31943 c 0.0018,1.27566 0.255341,8.04077 0.562826,15.03355 l 0.559071,12.71413 -3.599232,10.72101 -3.599241,10.72102 -2.711106,0.21775 c -1.491111,0.11971 -6.018293,0.39127 -10.060401,0.60335 -8.707979,0.45687 -9.243167,0.54252 -10.843245,1.73524 -4.164414,3.10417 -3.755859,9.10056 0.776354,11.39467 1.493661,0.75607 2.110082,0.78796 16.102965,0.83291 l 14.549861,0.0467 1.605802,-1.05126 c 1.493635,-0.97784 1.974762,-1.79535 6.888271,-11.70423 l 5.28249,-10.65295 5.99265,8.5257 c 3.31554,4.71694 5.91789,8.77627 5.82529,9.08659 -0.72805,2.43983 -3.96329,23.12116 -3.76579,24.07289 0.37378,1.80126 1.90773,3.87649 3.47038,4.69498 1.65712,0.86799 4.14031,0.98181 5.86066,0.26861 z M 114.61155,102.94682 c 2.70457,-1.31291 5.17502,-3.772642 6.52147,-6.493205 0.94145,-1.902246 1.06128,-2.550076 1.05404,-5.698716 -0.007,-3.139416 -0.13047,-3.79163 -1.0608,-5.60918 -1.44215,-2.817645 -4.04211,-5.343431 -6.80406,-6.60989 -1.96542,-0.901229 -2.7724,-1.054402 -5.50645,-1.045178 -2.65203,0.0089 -3.57176,0.180222 -5.34243,0.99485 -2.98521,1.373406 -5.356712,3.673078 -6.811604,6.605321 -1.09061,2.198058 -1.22433,2.81544 -1.224858,5.65502 -8.09e-4,4.121545 1.215203,6.949169 4.187973,9.738738 3.062889,2.87415 5.521869,3.75792 9.996939,3.593 2.22482,-0.082 3.35854,-0.33891 4.98978,-1.13076 z"
       id="path3724"
       inkscape:connector-curvature="0" />
  </g>
</svg>
