<?xml version="1.0" encoding="UTF-8"?>
<!DOCTYPE svg PUBLIC "-//W3C//DTD SVG 1.1//EN" "http://www.w3.org/Graphics/SVG/1.1/DTD/svg11.dtd">
<!-- Creator: CorelDRAW Home & Student X7 -->
<svg xmlns="http://www.w3.org/2000/svg" xml:space="preserve" width="571px" height="500px" version="1.1"
     style="shape-rendering:geometricPrecision; text-rendering:geometricPrecision; image-rendering:optimizeQuality; fill-rule:evenodd; clip-rule:evenodd"
     viewBox="0 0 4252 3721"
     enable-background="new 0 0 100 100">
 <defs>
  <style type="text/css">
   <![CDATA[
    .str0 {stroke:black;stroke-width:141.83}
    .fil0 {fill:none}
   ]]>
  </style>
 </defs>
 <g id="Layer_x0020_1">
  <metadata id="CorelCorpID_0Corel-Layer"/>
  <g id="_290686872">
   <path class="fil0 str0" d="M2276 2516c1065,21 1905,266 1905,566 0,314 -920,568 -2055,568 -1135,0 -2055,-254 -2055,-568 0,-300 844,-546 1913,-566"/>
   <path class="fil0 str0" d="M2246 2785c386,15 682,108 682,219 0,122 -359,222 -802,222 -443,0 -802,-100 -802,-222 0,-112 299,-204 689,-220"/>
   <path class="fil0 str0" d="M1984 3004l0 -1395c0,0 -15,-643 -508,-643 -493,0 -628,418 -643,732"/>
   <path class="fil0 str0" d="M2276 3004l0 -1395c0,0 15,-643 508,-643 493,0 628,418 643,732"/>
   <path class="fil0 str0" d="M966 656c0,0 417,-316 793,-121 342,176 371,578 371,578"/>
   <path class="fil0 str0" d="M2310 760c0,0 342,-545 931,-149"/>
   <line class="fil0 str0" x1="2130" y1="507" x2="2130" y2= "0" />
  </g>
 </g>
</svg>
